<svg xmlns="http://www.w3.org/2000/svg" id="_喇뒨쏛_2" data-name="喇뒨쏛 2" viewBox="0 0 1598.11 1598.11" width="1598.11" height="1598.11"><defs>
    <style>
      .cls-1 {
        fill: #2a9d8f;
      }

      .cls-2 {
        fill: #fff;
      }
    </style>
  </defs><g id="_喇뒨쏛_2-2" data-name="喇뒨쏛 2">
    <circle class="cls-1" cx="799.06" cy="799.06" r="799.06"></circle>
    <path class="cls-2" d="M1276.3,922.33l65.01,57.97c-104.9,123.82-326.32,109.39-413.75-29.28l42.92-121.81c13.28,85.19,87.81,150.13,175.6,149.87,51.43,0,97.75-21.83,130.21-56.74ZM928.31,761.43c36.2-115.49,81.09-215.49,207.42-229.33-113.56-3.19-223.13,41.68-279.06,170.59-22.53,50.85-45.97,160.55-83.08,203.79l-110.38-366.91h-73l-113.27,376.5-132.67-376.5h-92.34l185.56,526.58h77.45l111.78-371.53,80.01,265.95c-46.24,21.42-92.94,18.14-125.13,20.55,28.76,8.26,78.1,18.86,133.22,6.36l23.67,78.67h82.46c.47-1.39,29.42-83.5,29.89-84.85h0c13.55-38.46,63.04-178.98,77.48-219.88ZM1027.39,668.93c68.57-66.4,195.43-57.22,253.8,16.8l65.02-57.98c-37.83-43.84-91.19-75.29-149.03-86.42-68.48,18.92-123.77,50.81-169.79,127.6Z"></path>
  </g></svg>